<?xml version="1.0" encoding="UTF-8"?>
<svg width="500px" height="500px" viewBox="0 0 500 500" version="1.1" xmlns="http://www.w3.org/2000/svg" xmlns:xlink="http://www.w3.org/1999/xlink">
    <title>disconnect</title>
    <g id="disconnect" stroke="none" stroke-width="1" fill="none" fill-rule="evenodd">
        <g id="Arrow-Copy" transform="translate(243.500000, 324.000000) rotate(270.000000) translate(-243.500000, -324.000000) translate(162.000000, 198.000000)" fill="#8B8A8A" fill-rule="nonzero">
            <path d="M91.9495203,239.400023 L91.9495203,43.0167809 L145.514568,109.708459 C148.061455,112.950693 151.811303,114.238655 155.333105,113.080836 C158.854908,111.923017 161.605252,108.498069 162.53456,104.11301 C163.463867,99.7279515 162.428747,95.0593954 159.824217,91.8889418 L88.9843666,3.68910259 C85.0325164,-1.22970086 78.6265669,-1.22970086 74.6747167,3.68910259 L3.83486581,91.8889418 C1.93317495,94.2495569 0.865985375,97.4568383 0.869702326,100.800276 C0.869702326,105.895655 3.33622916,110.488827 7.11723477,112.438597 C10.8982404,114.388367 15.2502599,113.310893 18.1445157,109.708459 L71.7095629,43.0167809 L71.7095629,239.400023 C71.7095629,246.358798 76.2404317,252 81.8295416,252 C87.4186515,252 91.9495203,246.358798 91.9495203,239.400023 Z" id="Path" transform="translate(81.869702, 126.000000) rotate(180.000000) translate(-81.869702, -126.000000) "></path>
        </g>
        <g id="Arrow-Copy-2" transform="translate(243.000000, 166.000000) rotate(90.000000) translate(-243.000000, -166.000000) translate(161.000000, 39.000000)" fill="#8B8A8A" fill-rule="nonzero">
            <path d="M92.7723368,241.585543 L92.7723368,44.4230024 L146.668032,111.37933 C149.230641,114.63443 153.003636,115.927503 156.547178,114.765089 C160.090721,113.602676 162.858042,110.164137 163.793086,105.761677 C164.728131,101.359217 163.68662,96.6721352 161.066014,93.4891005 L89.7888796,4.93926189 C85.8126353,0.000939368722 79.3671429,0.000939368722 75.3908986,4.93926189 L4.11376464,93.4891005 C2.20033494,95.8590831 1.12655778,99.0790918 1.13029767,102.435797 C1.13029767,107.551395 3.61204999,112.162795 7.41639514,114.120302 C11.2207403,116.077809 15.5996242,114.996059 18.5117457,111.37933 L72.4074414,44.4230024 L72.4074414,241.585543 C72.4074414,248.571932 76.9662785,254.23552 82.5898891,254.23552 C88.2134997,254.23552 92.7723368,248.571932 92.7723368,241.585543 Z" id="Path" transform="translate(82.630298, 127.735520) rotate(180.000000) translate(-82.630298, -127.735520) "></path>
        </g>
        <line x1="398" y1="58" x2="89.5" y2="436.5" id="Line" stroke="#EC453D" stroke-width="16" stroke-linecap="square"></line>
    </g>
</svg>