<?xml version="1.0" encoding="UTF-8"?>
<svg width="500px" height="500px" viewBox="0 0 500 500" version="1.1" xmlns="http://www.w3.org/2000/svg"
     xmlns:xlink="http://www.w3.org/1999/xlink">
    <title>left business</title>
    <g id="left-business" stroke="none" stroke-width="1" fill="none" fill-rule="evenodd">
        <g id="sort" transform="translate(34.612876, 34.357189)">
            <polygon id="Path"
                     points="0.387123804 0.642811212 430.387124 0.642811212 430.387124 430.642811 0.387123804 430.642811"></polygon>
            <path d="M71.3315682,323.642811 L143.109346,323.642811 C152.97879,323.642811 161.05379,315.580311 161.05379,305.726145 C161.05379,295.871978 152.97879,287.809478 143.109346,287.809478 L71.3315682,287.809478 C61.4621238,287.809478 53.3871238,295.871978 53.3871238,305.726145 C53.3871238,315.580311 61.4621238,323.642811 71.3315682,323.642811 Z M53.3871238,126.559478 C53.3871238,136.413645 61.4621238,144.476145 71.3315682,144.476145 L358.442679,144.476145 C368.312124,144.476145 376.387124,136.413645 376.387124,126.559478 C376.387124,116.705311 368.312124,108.642811 358.442679,108.642811 L71.3315682,108.642811 C61.4621238,108.642811 53.3871238,116.705311 53.3871238,126.559478 Z M71.3315682,234.059478 L250.776013,234.059478 C260.645457,234.059478 268.720457,225.996978 268.720457,216.142811 C268.720457,206.288645 260.645457,198.226145 250.776013,198.226145 L71.3315682,198.226145 C61.4621238,198.226145 53.3871238,206.288645 53.3871238,216.142811 C53.3871238,225.996978 61.4621238,234.059478 71.3315682,234.059478 Z"
                  id="Shape" fill="#8B8A8A" fill-rule="nonzero"></path>
        </g>
        <g id="Close" transform="translate(293.289803, 248.799361)">
            <rect id="Rectangle" x="0.710197492" y="0.200638889" width="104" height="104"></rect>
            <path d="M101.710197,27.7009583 C101.710197,14.1793989 90.7327153,3.20063889 77.209878,3.20063889 L28.2105169,3.20063889 C14.6889575,3.20063889 3.71019749,14.1793989 3.71019749,27.7009583 L3.71019749,76.7015972 C3.71019749,90.2231567 14.6889575,101.200639 28.2105169,101.200639 L77.209878,101.200639 C90.7327153,101.200639 101.710197,90.2231567 101.710197,76.7015972 L101.710197,27.7009583 Z"
                  id="Path" fill="#EC453D"></path>
            <path d="M55.7698538,23.288561 C55.7698538,21.4846308 54.3048062,20.0197851 52.5016707,20.0197851 C50.6966251,20.0197851 49.2334876,21.4846308 49.2334876,23.288561 L49.2334876,82.1211007 C49.2334876,83.9250309 50.6966251,85.3898765 52.5016707,85.3898765 C54.3048062,85.3898765 55.7698538,83.9250309 55.7698538,82.1211007 L55.7698538,23.288561 Z"
                  id="Path" fill="#FFFFFF"
                  transform="translate(52.501671, 52.704831) rotate(45.000000) translate(-52.501671, -52.704831) "></path>
            <path d="M55.7694546,23.2864959 C55.7694546,21.4825656 54.304407,20.01772 52.5012715,20.01772 C50.6962259,20.01772 49.2330884,21.4825656 49.2330884,23.2864959 L49.2330884,82.1190356 C49.2330884,83.9229658 50.6962259,85.3878114 52.5012715,85.3878114 C54.304407,85.3878114 55.7694546,83.9229658 55.7694546,82.1190356 L55.7694546,23.2864959 Z"
                  id="Path" fill="#FFFFFF"
                  transform="translate(52.501272, 52.702766) scale(-1, 1) rotate(-135.000000) translate(-52.501272, -52.702766) "></path>
        </g>
    </g>
</svg>