<svg width="27" height="23" viewBox="0 0 27 23" fill="none" xmlns="http://www.w3.org/2000/svg">
    <path d="M25.3125 1.33496H0.9375C0.418945 1.33496 0 1.75391 0 2.27246V21.0225C0 21.541 0.418945 21.96 0.9375 21.96H25.3125C25.8311 21.96 26.25 21.541 26.25 21.0225V2.27246C26.25 1.75391 25.8311 1.33496 25.3125 1.33496ZM24.1406 4.58105V19.8506H2.10938V4.58105L1.30078 3.95117L2.45215 2.47168L3.70605 3.44727H22.5469L23.8008 2.47168L24.9521 3.95117L24.1406 4.58105ZM22.5469 3.44434L13.125 10.7686L3.70312 3.44434L2.44922 2.46875L1.29785 3.94824L2.10645 4.57813L12.1143 12.3594C12.4021 12.583 12.7561 12.7043 13.1206 12.7043C13.4851 12.7043 13.8391 12.583 14.127 12.3594L24.1406 4.58105L24.9492 3.95117L23.7979 2.47168L22.5469 3.44434Z"
          fill="#00A09D"/>
</svg>
