<svg width="121" height="51" viewBox="0 0 121 51" fill="none" xmlns="http://www.w3.org/2000/svg">
<path d="M14.5422 38.5318C14.8035 38.0745 15.1862 37.7012 15.6902 37.4118C16.1942 37.1225 16.7682 36.9778 17.4122 36.9778C18.1029 36.9778 18.7235 37.1412 19.2742 37.4678C19.8249 37.7945 20.2589 38.2565 20.5762 38.8538C20.8935 39.4418 21.0522 40.1278 21.0522 40.9118C21.0522 41.6865 20.8935 42.3772 20.5762 42.9838C20.2589 43.5905 19.8202 44.0618 19.2602 44.3978C18.7095 44.7338 18.0935 44.9018 17.4122 44.9018C16.7495 44.9018 16.1662 44.7572 15.6622 44.4678C15.1675 44.1785 14.7942 43.8098 14.5422 43.3618V44.7758H13.2682V34.4158H14.5422V38.5318ZM19.7502 40.9118C19.7502 40.3332 19.6335 39.8292 19.4002 39.3998C19.1669 38.9705 18.8495 38.6438 18.4482 38.4198C18.0562 38.1958 17.6222 38.0838 17.1462 38.0838C16.6795 38.0838 16.2455 38.2005 15.8442 38.4338C15.4522 38.6578 15.1349 38.9892 14.8922 39.4278C14.6589 39.8572 14.5422 40.3565 14.5422 40.9258C14.5422 41.5045 14.6589 42.0132 14.8922 42.4518C15.1349 42.8812 15.4522 43.2125 15.8442 43.4458C16.2455 43.6698 16.6795 43.7818 17.1462 43.7818C17.6222 43.7818 18.0562 43.6698 18.4482 43.4458C18.8495 43.2125 19.1669 42.8812 19.4002 42.4518C19.6335 42.0132 19.7502 41.4998 19.7502 40.9118ZM33.5331 37.1038V44.7758H32.2591V43.6418C32.0165 44.0338 31.6758 44.3418 31.2371 44.5658C30.8078 44.7805 30.3318 44.8878 29.8091 44.8878C29.2118 44.8878 28.6751 44.7665 28.1991 44.5238C27.7231 44.2718 27.3451 43.8985 27.0651 43.4038C26.7945 42.9092 26.6591 42.3072 26.6591 41.5978V37.1038H27.9191V41.4298C27.9191 42.1858 28.1105 42.7692 28.4931 43.1798C28.8758 43.5812 29.3985 43.7818 30.0611 43.7818C30.7425 43.7818 31.2791 43.5718 31.6711 43.1518C32.0631 42.7318 32.2591 42.1205 32.2591 41.3178V37.1038H33.5331ZM42.4002 44.9018C41.8122 44.9018 41.2849 44.8038 40.8182 44.6078C40.3515 44.4025 39.9829 44.1225 39.7122 43.7678C39.4415 43.4038 39.2922 42.9885 39.2642 42.5218H40.5802C40.6175 42.9045 40.7949 43.2172 41.1122 43.4598C41.4389 43.7025 41.8635 43.8238 42.3862 43.8238C42.8715 43.8238 43.2542 43.7165 43.5342 43.5018C43.8142 43.2872 43.9542 43.0165 43.9542 42.6898C43.9542 42.3538 43.8049 42.1065 43.5062 41.9478C43.2075 41.7798 42.7455 41.6165 42.1202 41.4578C41.5509 41.3085 41.0842 41.1592 40.7202 41.0098C40.3655 40.8512 40.0575 40.6225 39.7962 40.3238C39.5442 40.0158 39.4182 39.6145 39.4182 39.1198C39.4182 38.7278 39.5349 38.3685 39.7682 38.0418C40.0015 37.7152 40.3329 37.4585 40.7622 37.2718C41.1915 37.0758 41.6815 36.9778 42.2322 36.9778C43.0815 36.9778 43.7675 37.1925 44.2902 37.6218C44.8129 38.0512 45.0929 38.6392 45.1302 39.3858H43.8562C43.8282 38.9845 43.6649 38.6625 43.3662 38.4198C43.0769 38.1772 42.6849 38.0558 42.1902 38.0558C41.7329 38.0558 41.3689 38.1538 41.0982 38.3498C40.8275 38.5458 40.6922 38.8025 40.6922 39.1198C40.6922 39.3718 40.7715 39.5818 40.9302 39.7498C41.0982 39.9085 41.3035 40.0392 41.5462 40.1418C41.7982 40.2352 42.1435 40.3425 42.5822 40.4638C43.1329 40.6132 43.5809 40.7625 43.9262 40.9118C44.2715 41.0518 44.5655 41.2665 44.8082 41.5558C45.0602 41.8452 45.1909 42.2232 45.2002 42.6898C45.2002 43.1098 45.0835 43.4878 44.8502 43.8238C44.6169 44.1598 44.2855 44.4258 43.8562 44.6218C43.4362 44.8085 42.9509 44.9018 42.4002 44.9018ZM51.6567 35.8578C51.414 35.8578 51.2087 35.7738 51.0407 35.6058C50.8727 35.4378 50.7887 35.2325 50.7887 34.9898C50.7887 34.7472 50.8727 34.5418 51.0407 34.3738C51.2087 34.2058 51.414 34.1218 51.6567 34.1218C51.89 34.1218 52.086 34.2058 52.2447 34.3738C52.4127 34.5418 52.4967 34.7472 52.4967 34.9898C52.4967 35.2325 52.4127 35.4378 52.2447 35.6058C52.086 35.7738 51.89 35.8578 51.6567 35.8578ZM52.2727 37.1038V44.7758H50.9987V37.1038H52.2727ZM62.182 36.9638C63.1153 36.9638 63.8713 37.2485 64.45 37.8178C65.0286 38.3778 65.318 39.1898 65.318 40.2538V44.7758H64.058V40.4358C64.058 39.6705 63.8666 39.0872 63.484 38.6858C63.1013 38.2752 62.5786 38.0698 61.916 38.0698C61.244 38.0698 60.7073 38.2798 60.306 38.6998C59.914 39.1198 59.718 39.7312 59.718 40.5338V44.7758H58.444V37.1038H59.718V38.1958C59.97 37.8038 60.3106 37.5005 60.74 37.2858C61.1786 37.0712 61.6593 36.9638 62.182 36.9638ZM78.399 40.6458C78.399 40.8885 78.385 41.1452 78.357 41.4158H72.225C72.2717 42.1718 72.5284 42.7645 72.995 43.1938C73.471 43.6138 74.045 43.8238 74.717 43.8238C75.2677 43.8238 75.725 43.6978 76.089 43.4458C76.4624 43.1845 76.7237 42.8392 76.873 42.4098H78.245C78.0397 43.1472 77.629 43.7492 77.013 44.2158C76.397 44.6732 75.6317 44.9018 74.717 44.9018C73.989 44.9018 73.3357 44.7385 72.757 44.4118C72.1877 44.0852 71.7397 43.6232 71.413 43.0258C71.0864 42.4192 70.923 41.7192 70.923 40.9258C70.923 40.1325 71.0817 39.4372 71.399 38.8398C71.7164 38.2425 72.1597 37.7852 72.729 37.4678C73.3077 37.1412 73.9704 36.9778 74.717 36.9778C75.445 36.9778 76.089 37.1365 76.649 37.4538C77.209 37.7712 77.6384 38.2098 77.937 38.7698C78.245 39.3205 78.399 39.9458 78.399 40.6458ZM77.083 40.3798C77.083 39.8945 76.9757 39.4792 76.761 39.1338C76.5464 38.7792 76.2524 38.5132 75.879 38.3358C75.515 38.1492 75.109 38.0558 74.661 38.0558C74.017 38.0558 73.4664 38.2612 73.009 38.6718C72.561 39.0825 72.3044 39.6518 72.239 40.3798H77.083ZM86.7967 44.9018C86.2087 44.9018 85.6814 44.8038 85.2147 44.6078C84.748 44.4025 84.3794 44.1225 84.1087 43.7678C83.838 43.4038 83.6887 42.9885 83.6607 42.5218H84.9767C85.014 42.9045 85.1914 43.2172 85.5087 43.4598C85.8354 43.7025 86.26 43.8238 86.7827 43.8238C87.268 43.8238 87.6507 43.7165 87.9307 43.5018C88.2107 43.2872 88.3507 43.0165 88.3507 42.6898C88.3507 42.3538 88.2014 42.1065 87.9027 41.9478C87.604 41.7798 87.142 41.6165 86.5167 41.4578C85.9474 41.3085 85.4807 41.1592 85.1167 41.0098C84.762 40.8512 84.454 40.6225 84.1927 40.3238C83.9407 40.0158 83.8147 39.6145 83.8147 39.1198C83.8147 38.7278 83.9314 38.3685 84.1647 38.0418C84.398 37.7152 84.7294 37.4585 85.1587 37.2718C85.588 37.0758 86.078 36.9778 86.6287 36.9778C87.478 36.9778 88.164 37.1925 88.6867 37.6218C89.2094 38.0512 89.4894 38.6392 89.5267 39.3858H88.2527C88.2247 38.9845 88.0614 38.6625 87.7627 38.4198C87.4734 38.1772 87.0814 38.0558 86.5867 38.0558C86.1294 38.0558 85.7654 38.1538 85.4947 38.3498C85.224 38.5458 85.0887 38.8025 85.0887 39.1198C85.0887 39.3718 85.168 39.5818 85.3267 39.7498C85.4947 39.9085 85.7 40.0392 85.9427 40.1418C86.1947 40.2352 86.54 40.3425 86.9787 40.4638C87.5294 40.6132 87.9774 40.7625 88.3227 40.9118C88.668 41.0518 88.962 41.2665 89.2047 41.5558C89.4567 41.8452 89.5874 42.2232 89.5967 42.6898C89.5967 43.1098 89.48 43.4878 89.2467 43.8238C89.0134 44.1598 88.682 44.4258 88.2527 44.6218C87.8327 44.8085 87.3474 44.9018 86.7967 44.9018ZM98.1111 44.9018C97.5231 44.9018 96.9958 44.8038 96.5291 44.6078C96.0625 44.4025 95.6938 44.1225 95.4231 43.7678C95.1525 43.4038 95.0031 42.9885 94.9751 42.5218H96.2911C96.3285 42.9045 96.5058 43.2172 96.8231 43.4598C97.1498 43.7025 97.5745 43.8238 98.0971 43.8238C98.5825 43.8238 98.9651 43.7165 99.2451 43.5018C99.5251 43.2872 99.6651 43.0165 99.6651 42.6898C99.6651 42.3538 99.5158 42.1065 99.2171 41.9478C98.9185 41.7798 98.4565 41.6165 97.8311 41.4578C97.2618 41.3085 96.7951 41.1592 96.4311 41.0098C96.0765 40.8512 95.7685 40.6225 95.5071 40.3238C95.2551 40.0158 95.1291 39.6145 95.1291 39.1198C95.1291 38.7278 95.2458 38.3685 95.4791 38.0418C95.7125 37.7152 96.0438 37.4585 96.4731 37.2718C96.9025 37.0758 97.3925 36.9778 97.9431 36.9778C98.7925 36.9778 99.4785 37.1925 100.001 37.6218C100.524 38.0512 100.804 38.6392 100.841 39.3858H99.5671C99.5391 38.9845 99.3758 38.6625 99.0771 38.4198C98.7878 38.1772 98.3958 38.0558 97.9011 38.0558C97.4438 38.0558 97.0798 38.1538 96.8091 38.3498C96.5385 38.5458 96.4031 38.8025 96.4031 39.1198C96.4031 39.3718 96.4825 39.5818 96.6411 39.7498C96.8091 39.9085 97.0145 40.0392 97.2571 40.1418C97.5091 40.2352 97.8545 40.3425 98.2931 40.4638C98.8438 40.6132 99.2918 40.7625 99.6371 40.9118C99.9825 41.0518 100.276 41.2665 100.519 41.5558C100.771 41.8452 100.902 42.2232 100.911 42.6898C100.911 43.1098 100.794 43.4878 100.561 43.8238C100.328 44.1598 99.9965 44.4258 99.5671 44.6218C99.1471 44.8085 98.6618 44.9018 98.1111 44.9018Z" fill="#A5A7B2"/>
<g clip-path="url(#clip0_2_192)">
<path d="M50.7618 0.526306H50.9276C55.4046 5.70855 60.3342 10.5122 64.9054 15.6205C64.8829 10.9474 64.9188 6.27855 64.8829 1.6054C66.0795 1.60105 67.2716 1.58799 68.4681 1.57494C68.4636 9.20254 68.4861 16.8301 68.4592 24.4577H68.2889C63.8701 19.232 58.8957 14.4675 54.3156 9.36788C54.3291 10.6123 54.347 11.8568 54.3694 13.1012C53.3476 11.8829 52.1735 10.7907 51.1562 9.56804C50.6901 9.13292 50.8245 8.47154 50.7797 7.91459C50.7753 5.45183 50.8335 2.98907 50.7618 0.526306Z" fill="#00D0BD"/>
<path d="M70.7268 1.60971C75.2576 1.5923 79.7884 1.5836 84.3191 1.60971C84.3191 2.62353 84.3191 3.63735 84.3281 4.64683C80.9849 4.69469 77.6462 4.65988 74.303 4.66423C74.3165 6.59615 74.3075 8.52807 74.312 10.46C77.0547 10.4339 79.7973 10.4513 82.54 10.4426C82.54 11.4782 82.54 12.5137 82.54 13.5493C79.7973 13.5276 77.0547 13.5406 74.312 13.5319C74.3075 15.7945 74.3165 18.0571 74.303 20.3197C77.6417 20.3197 80.9804 20.298 84.3236 20.3284C84.3191 21.3553 84.3191 22.3778 84.3236 23.4004C79.7884 23.4178 75.2486 23.4526 70.7134 23.383C70.7716 16.1252 70.7447 8.86746 70.7268 1.60971Z" fill="#00D0BD"/>
<path d="M97.0197 1.58363C98.512 1.60104 100.004 1.60539 101.501 1.55753C98.7451 5.09503 95.9083 8.57597 93.2194 12.1526C96.585 15.8772 99.8385 19.6889 103.164 23.4483C101.685 23.4222 100.206 23.4135 98.7316 23.4309C95.729 20.1457 92.7757 16.8301 89.7911 13.5276C89.809 16.8432 89.8628 20.1588 89.7776 23.47C88.6035 23.4222 87.4293 23.4178 86.2552 23.4135C86.3045 16.134 86.2686 8.85879 86.2731 1.57928C87.4517 1.59234 88.6348 1.59234 89.8135 1.57493C89.8179 4.57289 89.8359 7.56649 89.7821 10.5601C92.2469 7.60565 94.5952 4.56419 97.0197 1.58363Z" fill="#00D0BD"/>
<path d="M103.706 1.57053C109.102 1.62709 114.497 1.57923 119.893 1.59663C119.884 2.62351 119.884 3.64603 119.893 4.66856C117.747 4.67291 115.604 4.66421 113.462 4.66421C113.498 10.8994 113.417 17.139 113.503 23.3699C112.306 23.396 111.105 23.4221 109.908 23.4308C109.913 17.1738 109.904 10.9168 109.913 4.65986C107.847 4.67291 105.777 4.65551 103.706 4.69467C103.706 3.65474 103.706 2.61481 103.706 1.57053Z" fill="#00D0BD"/>
<path d="M36.6316 0.530701C41.3686 5.55195 46.0965 10.5776 50.811 15.6162C50.8066 14.2499 50.7797 12.888 50.7662 11.5218C51.9762 12.7966 53.1593 14.0976 54.3649 15.3812C54.3469 18.4053 54.3649 21.4294 54.3604 24.4534C49.6324 19.4235 44.8731 14.4153 40.1675 9.36358C40.2034 14.0585 40.1899 18.7534 40.1765 23.444C38.9979 23.4179 37.8147 23.4135 36.6361 23.444C36.6271 15.8033 36.6361 8.167 36.6316 0.530701Z" fill="#2D2D2D"/>
<path d="M11.8938 1.63152C13.3862 1.53144 14.8875 1.63587 16.3843 1.54449C13.673 5.01238 10.9124 8.4411 8.23694 11.9351L8.18317 12.2049C11.4726 15.9556 14.7351 19.728 18.0648 23.4439C16.577 23.4222 15.0846 23.4091 13.5968 23.4352C10.6121 20.137 7.62746 16.8389 4.66072 13.5233C4.71002 16.8258 4.66968 20.1327 4.69657 23.4352C3.48657 23.4135 2.27657 23.4178 1.06657 23.4439C1.08002 16.1514 1.06657 8.86316 1.07106 1.5706C2.27657 1.59671 3.48657 1.60106 4.69209 1.57495C4.68761 4.58161 4.68761 7.58392 4.66969 10.5906C7.08969 7.61003 9.42454 4.56856 11.8938 1.63152Z" fill="#2D2D2D"/>
<path d="M20.2114 1.57932C24.7019 1.61848 29.1968 1.58802 33.6917 1.59237C33.6873 2.61924 33.6917 3.64612 33.6917 4.66865C30.353 4.66865 27.0098 4.673 23.6711 4.66429C23.6756 6.59621 23.6756 8.52378 23.6711 10.4557C26.4228 10.4339 29.1744 10.4557 31.926 10.4339C31.926 11.4782 31.926 12.5182 31.9216 13.5624C29.1744 13.5146 26.4273 13.5494 23.6756 13.5363C23.6711 15.7989 23.6801 18.0572 23.6711 20.3198C27.0098 20.3068 30.3486 20.3198 33.6873 20.3111C33.6917 21.3467 33.6917 22.3779 33.6962 23.4135C29.2058 23.4439 24.7108 23.3787 20.2204 23.4483C20.198 16.1557 20.2159 8.86753 20.2114 1.57932Z" fill="#2D2D2D"/>
</g>
<defs>
<clipPath id="clip0_2_192">
<rect width="121" height="23.9314" fill="white" transform="translate(0 0.526306)"/>
</clipPath>
</defs>
</svg>
