<svg width="91" height="18" viewBox="0 0 91 18" fill="none" xmlns="http://www.w3.org/2000/svg">
<path d="M38.1762 0H38.3009C41.6679 3.89782 45.3753 7.51091 48.8131 11.3531C48.7962 7.83818 48.8232 4.32655 48.7962 0.811636C49.6961 0.808364 50.5926 0.798545 51.4925 0.788727C51.4892 6.52582 51.506 12.2629 51.4858 18H51.3577C48.0345 14.0695 44.2934 10.4858 40.8489 6.65018C40.859 7.58618 40.8725 8.52218 40.8894 9.45818C40.1209 8.54182 39.2379 7.72036 38.4728 6.80073C38.1223 6.47345 38.2234 5.976 38.1897 5.55709C38.1863 3.70473 38.2301 1.85236 38.1762 0Z" fill="#00D0BD"/>
<path d="M53.1912 0.815127C56.5987 0.802037 60.0061 0.795491 63.4135 0.815127C63.4135 1.57767 63.4135 2.34022 63.4203 3.09949C60.906 3.13549 58.3951 3.10931 55.8808 3.11258C55.8909 4.56567 55.8841 6.01876 55.8875 7.47186C57.9502 7.45222 60.0128 7.46531 62.0755 7.45876C62.0755 8.23767 62.0755 9.01658 62.0755 9.79549C60.0128 9.77913 57.9502 9.78895 55.8875 9.7824C55.8841 11.4842 55.8909 13.186 55.8808 14.8879C58.3917 14.8879 60.9026 14.8715 63.4169 14.8944C63.4135 15.6668 63.4135 16.4359 63.4169 17.2049C60.0061 17.218 56.5919 17.2442 53.1811 17.1919C53.2249 11.7329 53.2047 6.27404 53.1912 0.815127Z" fill="#00D0BD"/>
<path d="M72.9652 0.795027C74.0875 0.808118 75.2099 0.811391 76.3356 0.775391C74.2628 3.43612 72.1293 6.0543 70.1071 8.74448C72.6383 11.5459 75.0852 14.4128 77.586 17.2405C76.4737 17.2208 75.3615 17.2143 74.2527 17.2274C71.9945 14.7565 69.7735 12.2627 67.5288 9.77867C67.5423 12.2725 67.5827 14.7663 67.5187 17.2569C66.6356 17.2208 65.7526 17.2176 64.8696 17.2143C64.9066 11.739 64.8797 6.26703 64.883 0.791754C65.7695 0.801573 66.6592 0.801573 67.5456 0.788482C67.549 3.04339 67.5625 5.29503 67.522 7.54667C69.3757 5.32448 71.1418 3.03685 72.9652 0.795027Z" fill="#00D0BD"/>
<path d="M77.9938 0.785156C82.0517 0.827702 86.1096 0.791702 90.1675 0.804793C90.1608 1.57716 90.1608 2.34625 90.1675 3.11534C88.5531 3.11861 86.9421 3.11207 85.3311 3.11207C85.358 7.80188 85.2974 12.495 85.3614 17.1815C84.4615 17.2012 83.5583 17.2208 82.6584 17.2273C82.6617 12.5212 82.655 7.81497 82.6617 3.10879C81.108 3.11861 79.5509 3.10552 77.9938 3.13497C77.9938 2.35279 77.9938 1.57061 77.9938 0.785156Z" fill="#00D0BD"/>
<path d="M27.5494 0.00292969C31.1119 3.77966 34.6677 7.55966 38.2133 11.3495C38.2099 10.3218 38.1897 9.29748 38.1796 8.26984C39.0896 9.22875 39.9794 10.2073 40.886 11.1727C40.8725 13.4473 40.886 15.7218 40.8826 17.9964C37.3269 14.2131 33.7476 10.4462 30.2087 6.64657C30.2356 10.1778 30.2255 13.7091 30.2154 17.2371C29.329 17.2175 28.4392 17.2142 27.5528 17.2371C27.5461 11.4902 27.5528 5.74657 27.5494 0.00292969Z" fill="#2D2D2D"/>
<path d="M8.94494 0.83108C10.0673 0.755807 11.1963 0.834352 12.322 0.765625C10.283 3.37399 8.20683 5.9529 6.19472 8.5809L6.15427 8.78381C8.62812 11.6049 11.0818 14.4424 13.5859 17.2373C12.467 17.2209 11.3446 17.2111 10.2257 17.2307C7.98101 14.75 5.73635 12.2693 3.50516 9.77544C3.54223 12.2594 3.5119 14.7467 3.53212 17.2307C2.62212 17.2144 1.71212 17.2176 0.802124 17.2373C0.812235 11.7522 0.802124 6.27035 0.805494 0.785261C1.71212 0.804898 2.62212 0.808171 3.52875 0.788534C3.52538 3.04999 3.52538 5.30817 3.5119 7.56962C5.3319 5.32781 7.08786 3.04017 8.94494 0.83108Z" fill="#2D2D2D"/>
<path d="M15.2003 0.791992C18.5774 0.821447 21.9579 0.798538 25.3384 0.80181C25.335 1.57417 25.3384 2.34654 25.3384 3.11563C22.8275 3.11563 20.3132 3.1189 17.8022 3.11236C17.8056 4.56545 17.8056 6.01526 17.8022 7.46836C19.8716 7.45199 21.9411 7.46836 24.0105 7.45199C24.0105 8.23745 24.0105 9.01963 24.0071 9.80508C21.9411 9.76908 19.875 9.79527 17.8056 9.78545C17.8022 11.4873 17.809 13.1858 17.8022 14.8876C20.3132 14.8778 22.8241 14.8876 25.335 14.8811C25.3384 15.66 25.3384 16.4356 25.3418 17.2145C21.9646 17.2374 18.5842 17.1884 15.207 17.2407C15.1902 11.7556 15.2037 6.27381 15.2003 0.791992Z" fill="#2D2D2D"/>
</svg>
