<svg width="31" height="25" viewBox="0 0 31 25" fill="none" xmlns="http://www.w3.org/2000/svg">
<g clip-path="url(#clip0_2_243)">
<path d="M5.61568 23.9535V22.365C5.61568 21.7559 5.24495 21.3589 4.60949 21.3589C4.29182 21.3589 3.94762 21.4648 3.70931 21.809C3.52406 21.5178 3.25934 21.3589 2.86219 21.3589C2.59735 21.3589 2.33274 21.4383 2.12085 21.7295V21.4119H1.56487V23.9535H2.12085V22.5502C2.12085 22.1003 2.35916 21.8884 2.72989 21.8884C3.10038 21.8884 3.28587 22.1267 3.28587 22.5502V23.9535H3.84185V22.5502C3.84185 22.1003 4.10645 21.8884 4.45065 21.8884C4.82139 21.8884 5.00663 22.1267 5.00663 22.5502V23.9535H5.61568V23.9535ZM13.8494 21.4119H12.9493V20.6441H12.3933V21.4119H11.8903V21.9148H12.3932V23.0798C12.3932 23.6623 12.6315 24.0064 13.267 24.0064C13.5053 24.0064 13.7699 23.927 13.9554 23.8211L13.7964 23.3445C13.6376 23.4504 13.4523 23.4769 13.3199 23.4769C13.0552 23.4769 12.9493 23.3181 12.9493 23.0533V21.9148H13.8494V21.4119V21.4119ZM18.5621 21.3588C18.2444 21.3588 18.0326 21.5178 17.9002 21.7295V21.4119H17.3442V23.9535H17.9002V22.5238C17.9002 22.1003 18.0854 21.862 18.4296 21.862C18.5355 21.862 18.6679 21.8885 18.7738 21.9149L18.9327 21.3855C18.8268 21.3589 18.6679 21.3589 18.5621 21.3589V21.3588ZM11.4402 21.6236C11.1754 21.4383 10.8047 21.3589 10.4076 21.3589C9.77226 21.3589 9.3487 21.6766 9.3487 22.1796C9.3487 22.6033 9.66637 22.8415 10.2224 22.921L10.4871 22.9475C10.7783 23.0003 10.9372 23.0798 10.9372 23.2122C10.9372 23.3975 10.7254 23.5299 10.3547 23.5299C9.98404 23.5299 9.69278 23.3975 9.50742 23.2652L9.24269 23.6887C9.53395 23.9005 9.9311 24.0064 10.3281 24.0064C11.0695 24.0064 11.4931 23.6623 11.4931 23.1857C11.4931 22.7356 11.1489 22.4973 10.6194 22.4179L10.3547 22.3914C10.1163 22.3649 9.9311 22.312 9.9311 22.1532C9.9311 21.9678 10.1163 21.862 10.4076 21.862C10.7254 21.862 11.0431 21.9943 11.2019 22.0737L11.4402 21.6236V21.6236ZM26.2135 21.3589C25.8957 21.3589 25.6839 21.5178 25.5515 21.7295V21.4119H24.9955V23.9535H25.5515V22.5238C25.5515 22.1003 25.7368 21.862 26.0809 21.862C26.1869 21.862 26.3194 21.8885 26.4252 21.9149L26.5841 21.3855C26.4782 21.3589 26.3194 21.3589 26.2135 21.3589V21.3589ZM19.118 22.6827C19.118 23.4504 19.6475 24.0064 20.4683 24.0064C20.8389 24.0064 21.1036 23.927 21.3684 23.7153L21.1036 23.2652C20.8919 23.424 20.6801 23.5034 20.4418 23.5034C19.9917 23.5034 19.674 23.1857 19.674 22.6827C19.674 22.2062 19.9917 21.8884 20.4418 21.862C20.6801 21.862 20.8919 21.9413 21.1036 22.1003L21.3684 21.6502C21.1036 21.4383 20.8389 21.3589 20.4683 21.3589C19.6475 21.3589 19.118 21.9149 19.118 22.6827ZM24.2543 22.6827V21.4119H23.6983V21.7295C23.5129 21.4913 23.2482 21.3589 22.904 21.3589C22.1892 21.3589 21.6332 21.9149 21.6332 22.6827C21.6332 23.4504 22.1892 24.0064 22.904 24.0064C23.2746 24.0064 23.5395 23.8741 23.6983 23.6358V23.9535H24.2543V22.6827V22.6827ZM22.2156 22.6827C22.2156 22.2326 22.5069 21.862 22.9834 21.862C23.4334 21.862 23.7512 22.2062 23.7512 22.6827C23.7512 23.1327 23.4334 23.5034 22.9834 23.5034C22.5069 23.4768 22.2156 23.1327 22.2156 22.6827V22.6827ZM15.5704 21.3589C14.829 21.3589 14.2995 21.8884 14.2995 22.6827C14.2995 23.4769 14.8289 24.0064 15.5968 24.0064C15.9674 24.0064 16.3381 23.9005 16.6294 23.6623L16.3645 23.2652C16.1528 23.424 15.888 23.5299 15.6233 23.5299C15.2791 23.5299 14.9349 23.3711 14.8554 22.9208H16.7353V22.7092C16.7618 21.8884 16.2852 21.3589 15.5703 21.3589H15.5704ZM15.5704 21.8354C15.9145 21.8354 16.1529 22.0473 16.2057 22.4445H14.882C14.9349 22.1003 15.1732 21.8354 15.5704 21.8354ZM29.364 22.6827V20.4058H28.808V21.7295C28.6226 21.4913 28.3579 21.3589 28.0137 21.3589C27.2989 21.3589 26.7429 21.9149 26.7429 22.6827C26.7429 23.4504 27.2989 24.0064 28.0137 24.0064C28.3844 24.0064 28.6492 23.8741 28.808 23.6358V23.9535H29.364V22.6827V22.6827ZM27.3254 22.6827C27.3254 22.2326 27.6166 21.862 28.0932 21.862C28.5433 21.862 28.8609 22.2062 28.8609 22.6827C28.8609 23.1327 28.5433 23.5034 28.0932 23.5034C27.6166 23.4768 27.3254 23.1327 27.3254 22.6827V22.6827ZM8.73966 22.6827V21.4119H8.18368V21.7295C7.99831 21.4913 7.73359 21.3589 7.38939 21.3589C6.67457 21.3589 6.11859 21.9149 6.11859 22.6827C6.11859 23.4504 6.67457 24.0064 7.38939 24.0064C7.76012 24.0064 8.02485 23.8741 8.18368 23.6358V23.9535H8.73966V22.6827V22.6827ZM6.67457 22.6827C6.67457 22.2326 6.96583 21.862 7.44233 21.862C7.89242 21.862 8.21021 22.2062 8.21021 22.6827C8.21021 23.1327 7.89242 23.5034 7.44233 23.5034C6.96583 23.4768 6.67457 23.1327 6.67457 22.6827V22.6827Z" fill="black"/>
<path d="M11.2548 2.11128H19.5945V17.0963H11.2548V2.11128Z" fill="#FF5F00"/>
<path d="M11.7844 9.60386C11.7844 6.55924 13.214 3.85869 15.4114 2.11128C13.7965 0.840482 11.758 0.0727234 9.53406 0.0727234C4.26528 0.0727234 0.00280762 4.3352 0.00280762 9.60386C0.00280762 14.8724 4.26528 19.135 9.53394 19.135C11.7579 19.135 13.7964 18.3672 15.4114 17.0963C13.214 15.3754 11.7844 12.6485 11.7844 9.60386V9.60386Z" fill="#EB001B"/>
<path d="M30.8466 9.60386C30.8466 14.8724 26.5841 19.135 21.3154 19.135C19.0915 19.135 17.053 18.3672 15.438 17.0963C17.6619 15.349 19.0651 12.6485 19.0651 9.60386C19.0651 6.55924 17.6353 3.85869 15.438 2.11128C17.0528 0.840482 19.0915 0.0727234 21.3154 0.0727234C26.5841 0.0727234 30.8467 4.36173 30.8467 9.60386H30.8466Z" fill="#F79E1B"/>
</g>
<defs>
<clipPath id="clip0_2_243">
<rect width="30.88" height="24" fill="white" transform="translate(0 0.0727234)"/>
</clipPath>
</defs>
</svg>
