<svg width="91" height="18" viewBox="0 0 91 18" fill="none" xmlns="http://www.w3.org/2000/svg">
<path d="M38.1763 0H38.301C41.668 3.89782 45.3754 7.51091 48.8132 11.3531C48.7963 7.83818 48.8233 4.32655 48.7963 0.811636C49.6962 0.808364 50.5927 0.798545 51.4926 0.788727C51.4892 6.52582 51.5061 12.2629 51.4859 18H51.3578C48.0346 14.0695 44.2935 10.4858 40.849 6.65018C40.8591 7.58618 40.8726 8.52218 40.8894 9.45818C40.121 8.54182 39.2379 7.72036 38.4729 6.80073C38.1223 6.47345 38.2235 5.976 38.1898 5.55709C38.1864 3.70473 38.2302 1.85236 38.1763 0Z" fill="#00D0BD"/>
<path d="M53.1913 0.815127C56.5987 0.802037 60.0062 0.795491 63.4136 0.815127C63.4136 1.57767 63.4136 2.34022 63.4203 3.09949C60.906 3.13549 58.3951 3.10931 55.8808 3.11258C55.8909 4.56567 55.8842 6.01876 55.8876 7.47186C57.9502 7.45222 60.0129 7.46531 62.0756 7.45876C62.0756 8.23767 62.0756 9.01658 62.0756 9.79549C60.0129 9.77913 57.9502 9.78895 55.8876 9.7824C55.8842 11.4842 55.8909 13.186 55.8808 14.8879C58.3918 14.8879 60.9027 14.8715 63.417 14.8944C63.4136 15.6668 63.4136 16.4359 63.417 17.2049C60.0062 17.218 56.592 17.2442 53.1812 17.1919C53.225 11.7329 53.2047 6.27404 53.1913 0.815127Z" fill="#00D0BD"/>
<path d="M72.9653 0.795027C74.0876 0.808118 75.2099 0.811391 76.3356 0.775391C74.2628 3.43612 72.1294 6.0543 70.1072 8.74448C72.6383 11.5459 75.0852 14.4128 77.586 17.2405C76.4738 17.2208 75.3616 17.2143 74.2527 17.2274C71.9946 14.7565 69.7735 12.2627 67.5288 9.77867C67.5423 12.2725 67.5828 14.7663 67.5187 17.2569C66.6357 17.2208 65.7527 17.2176 64.8696 17.2143C64.9067 11.739 64.8797 6.26703 64.8831 0.791754C65.7695 0.801573 66.6593 0.801573 67.5457 0.788482C67.5491 3.04339 67.5626 5.29503 67.5221 7.54667C69.3758 5.32448 71.1419 3.03685 72.9653 0.795027Z" fill="#00D0BD"/>
<path d="M77.9939 0.785156C82.0518 0.827702 86.1097 0.791702 90.1677 0.804793C90.1609 1.57716 90.1609 2.34625 90.1677 3.11534C88.5533 3.11861 86.9422 3.11207 85.3312 3.11207C85.3582 7.80188 85.2975 12.495 85.3615 17.1815C84.4616 17.2012 83.5584 17.2208 82.6585 17.2273C82.6619 12.5212 82.6551 7.81497 82.6619 3.10879C81.1081 3.11861 79.551 3.10552 77.9939 3.13497C77.9939 2.35279 77.9939 1.57061 77.9939 0.785156Z" fill="#00D0BD"/>
<path d="M27.5496 0.00292969C31.112 3.77966 34.6678 7.55966 38.2134 11.3495C38.2101 10.3218 38.1898 9.29748 38.1797 8.26984C39.0897 9.22875 39.9795 10.2073 40.8861 11.1727C40.8726 13.4473 40.8861 15.7218 40.8828 17.9964C37.327 14.2131 33.7477 10.4462 30.2088 6.64657C30.2357 10.1778 30.2256 13.7091 30.2155 17.2371C29.3291 17.2175 28.4393 17.2142 27.5529 17.2371C27.5462 11.4902 27.5529 5.74657 27.5496 0.00292969Z" fill="white"/>
<path d="M8.94506 0.83108C10.0674 0.755807 11.1965 0.834352 12.3222 0.765625C10.2831 3.37399 8.20695 5.9529 6.19484 8.5809L6.15439 8.78381C8.62825 11.6049 11.0819 14.4424 13.5861 17.2373C12.4671 17.2209 11.3448 17.2111 10.2258 17.2307C7.98113 14.75 5.73647 12.2693 3.50528 9.77544C3.54236 12.2594 3.51202 14.7467 3.53225 17.2307C2.62225 17.2144 1.71225 17.2176 0.802246 17.2373C0.812357 11.7522 0.802246 6.27035 0.805616 0.785261C1.71225 0.804898 2.62225 0.808171 3.52888 0.788534C3.52551 3.04999 3.52551 5.30817 3.51202 7.56962C5.33202 5.32781 7.08799 3.04017 8.94506 0.83108Z" fill="white"/>
<path d="M15.2004 0.791992C18.5775 0.821447 21.958 0.798538 25.3385 0.80181C25.3351 1.57417 25.3385 2.34654 25.3385 3.11563C22.8276 3.11563 20.3133 3.1189 17.8024 3.11236C17.8057 4.56545 17.8057 6.01526 17.8024 7.46836C19.8718 7.45199 21.9412 7.46836 24.0106 7.45199C24.0106 8.23745 24.0106 9.01963 24.0072 9.80508C21.9412 9.76908 19.8751 9.79527 17.8057 9.78545C17.8024 11.4873 17.8091 13.1858 17.8024 14.8876C20.3133 14.8778 22.8242 14.8876 25.3351 14.8811C25.3385 15.66 25.3385 16.4356 25.3419 17.2145C21.9648 17.2374 18.5843 17.1884 15.2072 17.2407C15.1903 11.7556 15.2038 6.27381 15.2004 0.791992Z" fill="white"/>
</svg>
