<svg width="21" height="24" viewBox="0 0 21 24" fill="none" xmlns="http://www.w3.org/2000/svg">
<g clip-path="url(#clip0_2_496)">
<path d="M17.5861 1.86808C16.4787 0.605932 14.477 0.0648193 11.9163 0.0648193H4.48423C4.23086 0.0648287 3.98581 0.15522 3.79313 0.319742C3.60045 0.484263 3.47278 0.712123 3.43307 0.962356L0.338505 20.5889C0.276995 20.9759 0.576678 21.3264 0.968942 21.3264H5.55723L6.70955 14.0174L6.67379 14.2463C6.75588 13.7296 7.19774 13.3486 7.72097 13.3486H9.90131C14.1846 13.3486 17.5385 11.6088 18.5182 6.57605C18.5473 6.4272 18.5725 6.28233 18.5942 6.14079C18.4706 6.07531 18.4706 6.07531 18.5942 6.14079C18.886 4.28063 18.5923 3.01444 17.5861 1.86808" fill="#27346A"/>
<path d="M8.46521 5.4707C8.59065 5.41097 8.72784 5.38002 8.86677 5.3801H14.6934C15.3833 5.3801 16.0269 5.425 16.615 5.51965C16.7795 5.54589 16.9432 5.57722 17.1058 5.61359C17.3363 5.66445 17.5642 5.7267 17.7885 5.8001C18.0776 5.89666 18.3469 6.00911 18.5943 6.14079C18.886 4.27992 18.5923 3.01444 17.5861 1.86808C16.4781 0.605932 14.4771 0.0648193 11.9163 0.0648193H4.48359C3.96028 0.0648193 3.51509 0.445799 3.43308 0.962356L0.338506 20.5882C0.276996 20.9758 0.576678 21.3258 0.968307 21.3258H5.55724L7.94794 6.16527C7.97144 6.01625 8.0308 5.87518 8.12091 5.75419C8.21102 5.6332 8.32917 5.53591 8.46521 5.4707V5.4707Z" fill="#27346A"/>
<path d="M18.5182 6.57613C17.5385 11.6082 14.1847 13.3487 9.90132 13.3487H7.72034C7.1971 13.3487 6.75517 13.7297 6.67387 14.2464L5.24031 23.3342C5.18675 23.6729 5.44868 23.9798 5.79135 23.9798H9.65917C9.88073 23.9797 10.095 23.9006 10.2634 23.7567C10.4319 23.6128 10.5435 23.4135 10.5781 23.1946L10.6158 22.9975L11.3447 18.3775L11.3917 18.1221C11.4263 17.9033 11.5379 17.704 11.7063 17.5601C11.8747 17.4161 12.089 17.337 12.3105 17.3369H12.8894C16.6362 17.3369 19.57 15.8148 20.4273 11.4124C20.7852 9.57271 20.6 8.03671 19.6533 6.95782C19.3662 6.63104 19.0096 6.36116 18.5942 6.14087C18.5718 6.28312 18.5474 6.42728 18.5182 6.57613V6.57613Z" fill="#2790C3"/>
<path d="M17.5689 5.73198C17.4162 5.68737 17.262 5.64788 17.1066 5.61357C16.9439 5.5778 16.7802 5.54668 16.6157 5.52027C16.027 5.42499 15.3839 5.38001 14.6933 5.38001H8.86742C8.72838 5.37969 8.59108 5.41091 8.46586 5.47132C8.32967 5.53633 8.21138 5.63356 8.12123 5.75458C8.03109 5.87561 7.9718 6.01679 7.9485 6.16589L6.7102 14.0174L6.67444 14.2463C6.7559 13.7296 7.19775 13.3486 7.72106 13.3486H9.90204C14.1853 13.3486 17.5391 11.6088 18.5188 6.57603C18.548 6.42719 18.5725 6.28295 18.595 6.14078C18.3469 6.00981 18.0783 5.89664 17.7891 5.80072C17.7162 5.77653 17.6428 5.75361 17.569 5.73198" fill="#1F264F"/>
</g>
<defs>
<clipPath id="clip0_2_496">
<rect width="20.35" height="24" fill="white" transform="translate(0.32489)"/>
</clipPath>
</defs>
</svg>
