<svg width="50" height="18" viewBox="0 0 50 18" fill="none" xmlns="http://www.w3.org/2000/svg">
<path d="M25.8587 6.12922C25.8302 8.37826 27.8631 9.63323 29.3944 10.3795C30.9677 11.145 31.4962 11.636 31.4899 12.3207C31.4782 13.3685 30.2349 13.8309 29.0715 13.8489C27.0418 13.8804 25.8616 13.3009 24.9234 12.8627L24.1922 16.2841C25.1336 16.7178 26.8766 17.0961 28.6841 17.1127C32.9269 17.1127 35.7027 15.0184 35.7177 11.7712C35.7343 7.64999 30.0174 7.42189 30.0564 5.57985C30.0699 5.0213 30.6029 4.42525 31.7707 4.2737C32.3488 4.19715 33.9446 4.13856 35.7538 4.97169L36.4639 1.66141C35.491 1.30714 34.2405 0.96791 32.6836 0.96791C28.6901 0.96791 25.8814 3.09079 25.8587 6.12922M43.2872 1.25304C42.5125 1.25304 41.8596 1.70496 41.5682 2.39846L35.5076 16.8696H39.7473L40.5909 14.5379H45.7718L46.2612 16.8696H49.998L46.7371 1.25304H43.2872M43.8803 5.47165L45.1039 11.3358H41.753L43.8803 5.47165M20.7183 1.25324L17.3764 16.8694H21.4165L24.7569 1.25285H20.7183M14.7416 1.25285L10.5365 11.8823L8.83547 2.84452C8.63587 1.83561 7.84765 1.25304 6.97233 1.25304H0.0982727L0.00199127 1.70652C1.41321 2.01275 3.01659 2.50665 3.988 3.03513C4.58249 3.35795 4.752 3.64016 4.9473 4.40728L8.16911 16.8696H12.4385L18.9841 1.25304H14.7416" fill="url(#paint0_linear_2_242)"/>
<defs>
<linearGradient id="paint0_linear_2_242" x1="22.9872" y1="17.4366" x2="23.4545" y2="0.855629" gradientUnits="userSpaceOnUse">
<stop stop-color="#222357"/>
<stop offset="1" stop-color="#254AA5"/>
</linearGradient>
</defs>
</svg>
