<svg width="160" height="32" viewBox="0 0 160 32" fill="none" xmlns="http://www.w3.org/2000/svg">
<path d="M67.123 0H67.3423C73.2623 6.92945 79.7808 13.3527 85.8253 20.1833C85.7956 13.9345 85.843 7.69164 85.7956 1.44291C87.3779 1.43709 88.9542 1.41964 90.5364 1.40218C90.5304 11.6015 90.5601 21.8007 90.5245 32H90.2993C84.4564 25.0124 77.8786 18.6415 71.8223 11.8225C71.8401 13.4865 71.8638 15.1505 71.8934 16.8145C70.5423 15.1855 68.9897 13.7251 67.6445 12.0902C67.0282 11.5084 67.206 10.624 67.1468 9.87927C67.1408 6.58618 67.2179 3.29309 67.123 0Z" fill="#00D0BD"/>
<path d="M93.5232 1.44879C99.5143 1.42552 105.505 1.41388 111.496 1.44879C111.496 2.80443 111.496 4.16006 111.508 5.50988C107.088 5.57388 102.673 5.52734 98.252 5.53315C98.2698 8.11643 98.258 10.6997 98.2639 13.283C101.891 13.2481 105.517 13.2713 109.144 13.2597C109.144 14.6444 109.144 16.0292 109.144 17.4139C105.517 17.3848 101.891 17.4022 98.2639 17.3906C98.258 20.4161 98.2698 23.4415 98.252 26.467C102.667 26.467 107.082 26.4379 111.502 26.4786C111.496 27.8517 111.496 29.219 111.502 30.5862C105.505 30.6095 99.5024 30.6561 93.5054 30.563C93.5824 20.8582 93.5469 11.1535 93.5232 1.44879Z" fill="#00D0BD"/>
<path d="M128.29 1.41382C130.264 1.43709 132.237 1.44291 134.216 1.37891C130.572 6.10909 126.821 10.7636 123.265 15.5462C127.716 20.5265 132.018 25.6233 136.415 30.6502C134.459 30.6153 132.504 30.6036 130.554 30.6269C126.584 26.2342 122.679 21.8007 118.732 17.3847C118.756 21.8182 118.827 26.2516 118.714 30.6793C117.162 30.6153 115.609 30.6095 114.056 30.6036C114.122 20.8698 114.074 11.1418 114.08 1.408C115.639 1.42545 117.203 1.42545 118.762 1.40218C118.768 5.41091 118.791 9.41382 118.72 13.4167C121.979 9.46618 125.085 5.39927 128.29 1.41382Z" fill="#00D0BD"/>
<path d="M137.132 1.39636C144.267 1.472 151.402 1.408 158.537 1.43127C158.525 2.80436 158.525 4.17164 158.537 5.53891C155.698 5.54473 152.865 5.53309 150.033 5.53309C150.08 13.8705 149.974 22.2138 150.086 30.5455C148.504 30.5804 146.916 30.6153 145.334 30.6269C145.339 22.2604 145.328 13.8938 145.339 5.52727C142.608 5.54473 139.87 5.52145 137.132 5.57382C137.132 4.18327 137.132 2.79273 137.132 1.39636Z" fill="#00D0BD"/>
<path d="M48.4385 0.00585938C54.7022 6.72004 60.954 13.44 67.1881 20.1775C67.1822 18.3506 67.1466 16.5295 67.1289 14.7026C68.7289 16.4073 70.2933 18.147 71.8874 19.8633C71.8637 23.907 71.8874 27.9506 71.8815 31.9942C65.6296 25.2684 59.3363 18.5717 53.114 11.8168C53.1614 18.0946 53.1437 24.3724 53.1259 30.6444C51.5674 30.6095 50.0029 30.6037 48.4444 30.6444C48.4326 20.4277 48.4444 10.2168 48.4385 0.00585938Z" fill="#2D2D2D"/>
<path d="M15.7274 1.47781C17.7008 1.344 19.686 1.48363 21.6652 1.36145C18.08 5.99854 14.4297 10.5833 10.8919 15.2553L10.8208 15.616C15.1704 20.6313 19.4845 25.6756 23.8874 30.6444C21.92 30.6153 19.9467 30.5978 17.9793 30.6327C14.0326 26.2225 10.086 21.8124 6.16299 17.3789C6.22818 21.7949 6.17484 26.2167 6.2104 30.6327C4.6104 30.6036 3.0104 30.6095 1.4104 30.6444C1.42818 20.8931 1.4104 11.1476 1.41633 1.39636C3.0104 1.43127 4.6104 1.43709 6.20447 1.40218C6.19855 5.42254 6.19855 9.43709 6.17484 13.4575C9.37484 9.472 12.4623 5.40509 15.7274 1.47781Z" fill="#2D2D2D"/>
<path d="M26.7258 1.40808C32.6636 1.46044 38.6073 1.41972 44.551 1.42554C44.5451 2.79863 44.551 4.17172 44.551 5.53899C40.1362 5.53899 35.7155 5.54481 31.3006 5.53317C31.3066 8.11645 31.3066 10.6939 31.3006 13.2772C34.9392 13.2481 38.5777 13.2772 42.2162 13.2481C42.2162 14.6444 42.2162 16.035 42.2103 17.4314C38.5777 17.3674 34.9451 17.4139 31.3066 17.3964C31.3006 20.4219 31.3125 23.4415 31.3006 26.467C35.7155 26.4495 40.1303 26.467 44.5451 26.4554C44.551 27.8401 44.551 29.219 44.5569 30.6037C38.6192 30.6444 32.6755 30.5572 26.7377 30.6503C26.708 20.899 26.7318 11.1535 26.7258 1.40808Z" fill="#2D2D2D"/>
</svg>
